#N canvas 965 84 948 822 10;
#X obj 134 742 dac~;
#X obj 134 704 *~;
#X obj 622 47 tgl 15 0 empty empty empty 17 7 0 10 -262144 -1 -1 0
1;
#X obj 217 400 *~;
#X obj 260 357 line~;
#X obj 134 469 cos~;
#X obj 134 444 +~;
#X obj 260 334 pack 0 50;
#X floatatom 260 286 0 0 100 0 - - -;
#X obj 260 310 / 100;
#X obj 134 400 phasor~;
#X obj 134 496 hip~;
#X obj 217 286 osc~;
#X text 284 286 index (x100);
#X text 16 288 carrier harmonic #;
#X obj 134 356 * 1;
#X obj 143 307 t b f;
#X obj 143 286 r harmonic;
#X obj 260 180 r index;
#X obj 622 146 f;
#X obj 622 76 t b f;
#X obj 622 122 delay;
#X msg 622 98 200;
#X obj 622 170 s PMToggle;
#X obj 238 538 r PMVol;
#X obj 143 238 loadbang;
#X obj 143 259 1;
#X obj 134 667 *~;
#X obj 163 638 line~;
#X obj 163 539 r PMToggle;
#X obj 235 638 line~;
#X msg 162 614 \$1 100;
#X obj 175 561 loadbang;
#X obj 175 583 0;
#X msg 238 614 \$1 100;
#X obj 271 219 loadbang;
#X msg 271 242 50;
#N canvas 752 178 714 620 timbrePresets 0;
#X msg 264 54 36, f 4;
#X msg 377 56 72;
#X msg 310 55 48;
#X msg 345 55 60;
#X obj 316 415 moses 40;
#X obj 316 438 bng 15 250 50 0 empty empty empty 17 7 0 10 -262144
-1 -1;
#X obj 316 458 2;
#X obj 316 482 s harmonic;
#X obj 361 438 bng 15 250 50 0 empty empty empty 17 7 0 10 -262144
-1 -1;
#X obj 361 458 1;
#N canvas 97 224 657 493 index_values 0;
#X obj 42 244 sel 36 37 38 39, f 24;
#X msg 42 271 85;
#X msg 77 272 80;
#X msg 112 272 75;
#X msg 147 272 70;
#X obj 42 67 loadbang;
#X msg 42 100 4;
#X obj 42 153 until;
#X obj 42 187 f;
#X obj 42 315 tabwrite index_values;
#X obj 72 187 + 1;
#X obj 42 213 t f f;
#X msg 83 154 36;
#X obj 42 121 t f b;
#X obj 259 74 loadbang;
#X obj 259 160 until;
#X obj 259 194 f;
#X obj 259 322 tabwrite index_values;
#X obj 289 194 + 1;
#X msg 302 160 40;
#X obj 259 266 f;
#X obj 289 266 - 2;
#X msg 346 239 80;
#X obj 259 128 t f b b, f 15;
#X obj 259 229 t b f;
#X text 71 459 change to harmonic 1 at 40(index 80);
#X text 53 444 to index 60 at 39 (-5 each step from 36;
#X text 55 363 midi 36 harmonic = 2 \, index = 85 \; midi 48 harmonic
= 1 \, index = 60 \; midi 60 harmonic = 1 \, index = 40 \; midi 72
harmonic = 1 \, index = 15;
#X msg 259 107 33;
#X obj 419 73 loadbang;
#X obj 419 159 until;
#X obj 419 193 f;
#X obj 419 321 tabwrite index_values;
#X obj 449 193 + 1;
#X obj 419 265 f;
#X obj 419 127 t f b b, f 15;
#X obj 419 228 t b f;
#X msg 419 106 11;
#X obj 449 265 - 1;
#X msg 462 159 73;
#X msg 506 238 14;
#X connect 0 0 1 0;
#X connect 0 1 2 0;
#X connect 0 2 3 0;
#X connect 0 3 4 0;
#X connect 1 0 9 0;
#X connect 2 0 9 0;
#X connect 3 0 9 0;
#X connect 4 0 9 0;
#X connect 5 0 6 0;
#X connect 6 0 13 0;
#X connect 7 0 8 0;
#X connect 8 0 10 0;
#X connect 8 0 11 0;
#X connect 10 0 8 1;
#X connect 11 0 0 0;
#X connect 11 1 9 1;
#X connect 12 0 8 1;
#X connect 13 0 7 0;
#X connect 13 1 12 0;
#X connect 14 0 28 0;
#X connect 15 0 16 0;
#X connect 16 0 18 0;
#X connect 16 0 24 0;
#X connect 18 0 16 1;
#X connect 19 0 16 1;
#X connect 20 0 21 0;
#X connect 20 0 17 0;
#X connect 21 0 20 1;
#X connect 22 0 20 1;
#X connect 23 0 15 0;
#X connect 23 1 19 0;
#X connect 23 2 22 0;
#X connect 24 0 20 0;
#X connect 24 1 17 1;
#X connect 28 0 23 0;
#X connect 29 0 37 0;
#X connect 30 0 31 0;
#X connect 31 0 33 0;
#X connect 31 0 36 0;
#X connect 33 0 31 1;
#X connect 34 0 32 0;
#X connect 34 0 38 0;
#X connect 35 0 30 0;
#X connect 35 1 39 0;
#X connect 35 2 40 0;
#X connect 36 0 34 0;
#X connect 36 1 32 1;
#X connect 37 0 35 0;
#X connect 38 0 34 1;
#X connect 39 0 31 1;
#X connect 40 0 34 1;
#X restore 413 545 pd index_values;
#X obj 413 518 table index_values;
#X obj 413 482 s index;
#X obj 413 415 tabread index_values;
#X obj 73 346 r pause;
#X obj 316 353 t f f f;
#X msg 278 177 0;
#X msg 251 456 1;
#X obj 251 148 t f b;
#X obj 251 309 t b f;
#X obj 278 198 s pause;
#X obj 251 287 f;
#X obj 59 427 *~;
#X obj 74 394 line~;
#X obj 251 236 t b f;
#X obj 251 265 delay 100;
#X text 336 198 ramp down previous pitch;
#X text 323 264 wait for ramp down and send new freq;
#X text 558 370 1 compute freq \; based on tuning;
#X text 342 390 2 read timbre values;
#X obj 73 366 pack 0 20;
#X obj 133 347 r unpause;
#X obj 133 367 pack 0 100;
#X obj 251 482 s unpause;
#X text 123 426 ramp vol back up slowly \; to avoid attack sound;
#X msg 407 56 83;
#X obj 558 418 s pitch;
#X obj 251 32 r PMFrequency;
#X connect 0 0 18 0;
#X connect 1 0 18 0;
#X connect 2 0 18 0;
#X connect 3 0 18 0;
#X connect 4 0 5 0;
#X connect 4 1 8 0;
#X connect 5 0 6 0;
#X connect 6 0 7 0;
#X connect 8 0 9 0;
#X connect 9 0 7 0;
#X connect 13 0 12 0;
#X connect 14 0 30 0;
#X connect 15 0 4 0;
#X connect 15 1 13 0;
#X connect 15 2 36 0;
#X connect 16 0 20 0;
#X connect 17 0 33 0;
#X connect 18 0 24 0;
#X connect 18 1 16 0;
#X connect 19 0 17 0;
#X connect 19 1 15 0;
#X connect 21 0 19 0;
#X connect 23 0 22 1;
#X connect 24 0 25 0;
#X connect 24 1 21 1;
#X connect 25 0 21 0;
#X connect 30 0 23 0;
#X connect 31 0 32 0;
#X connect 32 0 23 0;
#X connect 35 0 18 0;
#X connect 37 0 18 0;
#X restore 725 49 pd timbrePresets;
#N canvas 181 564 492 381 compute_freq 0;
#X obj 130 33 r a_freq;
#X obj 72 156 - 69;
#X obj 72 178 / 12;
#X msg 72 199 2 \$1;
#X obj 72 222 pow;
#X floatatom 72 273 5 0 0 0 - - -, f 5;
#X obj 72 243 * 440;
#X obj 130 56 t b f;
#X obj 72 130 f;
#X text 68 329 freq = a * 2^((m-69)/12);
#X obj 72 33 inlet;
#X obj 72 70 t b f;
#X obj 71 300 outlet;
#X connect 0 0 7 0;
#X connect 1 0 2 0;
#X connect 2 0 3 0;
#X connect 3 0 4 0;
#X connect 4 0 6 0;
#X connect 5 0 12 0;
#X connect 6 0 5 0;
#X connect 7 0 8 0;
#X connect 7 1 6 1;
#X connect 8 0 1 0;
#X connect 10 0 11 0;
#X connect 11 0 8 0;
#X connect 11 1 8 1;
#X restore 134 139 pd compute_freq;
#X obj 451 123 s a_freq;
#X msg 471 90 440;
#X obj 471 67 loadbang;
#X obj 134 101 +;
#X obj 197 41 t b f;
#X obj 134 19 r FMPitch;
#X obj 197 19 r FMOctaveOffset;
#X obj 451 40 r FMTuning;
#X msg 459 235 36;
#X obj 459 257 s FMPitch;
#X msg 526 235 24;
#X obj 526 257 s FMOctaveOffset;
#X obj 459 201 loadbang;
#X connect 1 0 0 0;
#X connect 1 0 0 1;
#X connect 2 0 20 0;
#X connect 3 0 6 1;
#X connect 4 0 3 1;
#X connect 5 0 11 0;
#X connect 6 0 5 0;
#X connect 7 0 4 0;
#X connect 8 0 9 0;
#X connect 9 0 7 0;
#X connect 10 0 6 0;
#X connect 11 0 27 0;
#X connect 12 0 3 0;
#X connect 15 0 10 0;
#X connect 16 0 15 0;
#X connect 16 1 15 1;
#X connect 17 0 16 0;
#X connect 18 0 8 0;
#X connect 19 0 23 0;
#X connect 20 0 22 0;
#X connect 20 1 19 1;
#X connect 21 0 19 0;
#X connect 22 0 21 0;
#X connect 24 0 34 0;
#X connect 25 0 26 0;
#X connect 26 0 16 0;
#X connect 27 0 1 0;
#X connect 28 0 27 1;
#X connect 29 0 31 0;
#X connect 30 0 1 1;
#X connect 31 0 28 0;
#X connect 32 0 33 0;
#X connect 33 0 31 0;
#X connect 33 0 34 0;
#X connect 34 0 30 0;
#X connect 35 0 36 0;
#X connect 36 0 8 0;
#X connect 38 0 12 0;
#X connect 38 0 15 0;
#X connect 40 0 39 0;
#X connect 41 0 40 0;
#X connect 42 0 38 0;
#X connect 43 0 42 0;
#X connect 43 1 42 1;
#X connect 44 0 42 0;
#X connect 45 0 43 0;
#X connect 46 0 39 0;
#X connect 47 0 48 0;
#X connect 49 0 50 0;
#X connect 51 0 47 0;
#X connect 51 0 49 0;
