#N canvas 1157 113 747 712 10;
#X obj 81 310 osc~;
#X obj 81 522 *~;
#X obj 343 395 line~;
#X obj 261 232 loadbang;
#X obj 343 83 r oscVol;
#X obj 81 395 *~;
#X msg 343 372 \$1 100;
#X obj 261 255 0;
#X obj 254 300 line~;
#X msg 254 277 \$1 100;
#X obj 254 84 r oscToggle;
#N canvas 637 668 492 381 compute_freq 0;
#X obj 130 33 r a_freq;
#X obj 72 156 - 69;
#X obj 72 178 / 12;
#X msg 72 199 2 \$1;
#X obj 72 222 pow;
#X floatatom 72 273 5 0 0 0 - - -, f 5;
#X obj 72 243 * 440;
#X obj 130 56 t b f;
#X obj 72 130 f;
#X text 68 329 freq = a * 2^((m-69)/12);
#X obj 72 33 inlet;
#X obj 72 70 t b f;
#X obj 71 300 outlet;
#X connect 0 0 7 0;
#X connect 1 0 2 0;
#X connect 2 0 3 0;
#X connect 3 0 4 0;
#X connect 4 0 6 0;
#X connect 5 0 12 0;
#X connect 6 0 5 0;
#X connect 7 0 8 0;
#X connect 7 1 6 1;
#X connect 8 0 1 0;
#X connect 10 0 11 0;
#X connect 11 0 8 0;
#X connect 11 1 8 1;
#X restore 81 200 pd compute_freq;
#X obj 452 163 s a_freq;
#X msg 472 130 440;
#X obj 472 107 loadbang;
#X obj 81 162 +;
#X obj 89 125 t b f;
#X obj 81 79 r sinePitch;
#X obj 89 103 r sineOctaveOffset;
#X obj 452 80 r sineTuning;
#X obj 81 583 dac~;
#X obj 480 265 s sinePitch;
#X obj 564 267 s sineOctaveOffset;
#X msg 480 243 36;
#X obj 480 316 s oscVol;
#X obj 561 318 s oscToggle;
#X msg 561 296 1;
#X msg 480 294 1;
#X floatatom 105 241 5 0 0 0 - - -, f 5;
#X obj 480 218 loadbang;
#X msg 564 245 24;
#X connect 0 0 5 0;
#X connect 1 0 20 0;
#X connect 1 0 20 1;
#X connect 2 0 1 1;
#X connect 3 0 7 0;
#X connect 4 0 6 0;
#X connect 5 0 1 0;
#X connect 6 0 2 0;
#X connect 7 0 9 0;
#X connect 8 0 5 1;
#X connect 9 0 8 0;
#X connect 10 0 9 0;
#X connect 11 0 0 0;
#X connect 11 0 28 0;
#X connect 13 0 12 0;
#X connect 14 0 13 0;
#X connect 15 0 11 0;
#X connect 16 0 15 0;
#X connect 16 1 15 1;
#X connect 17 0 15 0;
#X connect 18 0 16 0;
#X connect 19 0 12 0;
#X connect 23 0 21 0;
#X connect 26 0 25 0;
#X connect 27 0 24 0;
#X connect 29 0 23 0;
#X connect 29 0 30 0;
#X connect 30 0 22 0;
