#N canvas 921 488 982 521 10;
#X obj 74 319 dac~;
#X obj 74 245 catch~ dacL;
#X obj 156 245 catch~ dacR;
#N canvas 59 613 402 395 Sine 1;
#X obj 54 178 osc~;
#X obj 54 303 *~;
#X obj 161 233 line~;
#X obj 104 160 loadbang;
#X obj 161 76 r oscVol;
#X obj 54 263 *~;
#X msg 161 210 \$1 100;
#X obj 104 183 0;
#X obj 97 228 line~;
#X msg 97 205 \$1 100;
#X obj 97 53 r oscToggle;
#N canvas 120 486 281 172 throw 0;
#X obj 42 104 throw~ dacL;
#X obj 117 104 throw~ dacR;
#X obj 42 57 inlet~;
#X connect 2 0 0 0;
#X connect 2 0 1 0;
#X restore 54 364 pd throw;
#X obj 54 26 r freq;
#X connect 0 0 5 0;
#X connect 1 0 11 0;
#X connect 2 0 1 1;
#X connect 3 0 7 0;
#X connect 4 0 6 0;
#X connect 5 0 1 0;
#X connect 6 0 2 0;
#X connect 7 0 9 0;
#X connect 8 0 5 1;
#X connect 9 0 8 0;
#X connect 10 0 9 0;
#X connect 12 0 0 0;
#X restore 77 102 pd Sine;
#N canvas 61 446 446 514 Noise 0;
#X obj 55 381 *~;
#X obj 295 310 line~;
#X obj 208 236 loadbang;
#X obj 55 341 *~;
#X msg 295 287 \$1 100;
#X obj 208 258 0;
#X obj 200 304 line~;
#X msg 200 281 \$1 100;
#X obj 200 36 r noiseToggle;
#X obj 295 36 r noiseVol;
#X obj 55 36 noise~;
#N canvas 120 486 281 172 throw 0;
#X obj 42 104 throw~ dacL;
#X obj 117 104 throw~ dacR;
#X obj 42 57 inlet~;
#X connect 2 0 0 0;
#X connect 2 0 1 0;
#X restore 55 404 pd throw;
#X obj 55 87 hip~ 5;
#X obj 55 112 hip~ 5;
#X obj 55 133 hip~ 5;
#X obj 55 178 lop~ 22050;
#X obj 55 203 lop~ 22050;
#X obj 55 224 lop~ 22050;
#X obj 88 60 r noiseHipFreq;
#X obj 112 86 r noiseLopFreq;
#X connect 0 0 11 0;
#X connect 1 0 0 1;
#X connect 2 0 5 0;
#X connect 3 0 0 0;
#X connect 4 0 1 0;
#X connect 5 0 7 0;
#X connect 6 0 3 1;
#X connect 7 0 6 0;
#X connect 8 0 7 0;
#X connect 9 0 4 0;
#X connect 10 0 12 0;
#X connect 12 0 13 0;
#X connect 13 0 14 0;
#X connect 14 0 15 0;
#X connect 15 0 16 0;
#X connect 16 0 17 0;
#X connect 17 0 3 0;
#X connect 18 0 12 1;
#X connect 18 0 13 1;
#X connect 18 0 14 1;
#X connect 19 0 15 1;
#X connect 19 0 16 1;
#X connect 19 0 17 1;
#X restore 76 137 pd Noise;
#N canvas 812 215 905 732 PM 0;
#X obj 134 675 dac~;
#X obj 134 637 *~;
#X obj 244 605 line~;
#X obj 384 20 tgl 15 0 empty empty empty 17 7 0 10 -262144 -1 -1 0
1;
#X obj 217 280 *~;
#X obj 260 237 line~;
#X obj 134 389 cos~;
#X obj 134 364 +~;
#X obj 260 214 pack 0 50;
#X floatatom 260 166 0 0 100 0 - - -;
#X obj 260 190 / 100;
#X obj 134 280 phasor~;
#X obj 134 416 hip~;
#X obj 217 166 osc~;
#X text 284 166 index (x100);
#X text 16 168 carrier harmonic #;
#X obj 244 583 pack 0 50;
#X obj 244 561 * 0.9;
#X obj 134 236 * 1;
#X msg 485 77 36, f 4;
#X msg 598 79 72;
#X obj 256 528 t b f;
#X msg 531 78 48;
#X msg 566 78 60;
#X obj 143 187 t b f;
#X obj 537 438 moses 40;
#X obj 537 461 bng 15 250 50 0 empty empty empty 17 7 0 10 -262144
-1 -1;
#X obj 537 481 2;
#X obj 537 505 s harmonic;
#X obj 143 166 r harmonic;
#X obj 582 461 bng 15 250 50 0 empty empty empty 17 7 0 10 -262144
-1 -1;
#X obj 582 481 1;
#N canvas 97 224 657 493 index_values 0;
#X obj 42 244 sel 36 37 38 39, f 24;
#X msg 42 271 85;
#X msg 77 272 80;
#X msg 112 272 75;
#X msg 147 272 70;
#X obj 42 67 loadbang;
#X msg 42 100 4;
#X obj 42 153 until;
#X obj 42 187 f;
#X obj 42 315 tabwrite index_values;
#X obj 72 187 + 1;
#X obj 42 213 t f f;
#X msg 83 154 36;
#X obj 42 121 t f b;
#X obj 259 74 loadbang;
#X obj 259 160 until;
#X obj 259 194 f;
#X obj 259 322 tabwrite index_values;
#X obj 289 194 + 1;
#X msg 302 160 40;
#X obj 259 266 f;
#X obj 289 266 - 2;
#X msg 346 239 80;
#X obj 259 128 t f b b, f 15;
#X obj 259 229 t b f;
#X text 71 459 change to harmonic 1 at 40(index 80);
#X text 53 444 to index 60 at 39 (-5 each step from 36;
#X text 55 363 midi 36 harmonic = 2 \, index = 85 \; midi 48 harmonic
= 1 \, index = 60 \; midi 60 harmonic = 1 \, index = 40 \; midi 72
harmonic = 1 \, index = 15;
#X msg 259 107 33;
#X obj 419 73 loadbang;
#X obj 419 159 until;
#X obj 419 193 f;
#X obj 419 321 tabwrite index_values;
#X obj 449 193 + 1;
#X obj 419 265 f;
#X obj 419 127 t f b b, f 15;
#X obj 419 228 t b f;
#X msg 419 106 11;
#X obj 449 265 - 1;
#X msg 462 159 73;
#X msg 506 238 14;
#X connect 0 0 1 0;
#X connect 0 1 2 0;
#X connect 0 2 3 0;
#X connect 0 3 4 0;
#X connect 1 0 9 0;
#X connect 2 0 9 0;
#X connect 3 0 9 0;
#X connect 4 0 9 0;
#X connect 5 0 6 0;
#X connect 6 0 13 0;
#X connect 7 0 8 0;
#X connect 8 0 10 0;
#X connect 8 0 11 0;
#X connect 10 0 8 1;
#X connect 11 0 0 0;
#X connect 11 1 9 1;
#X connect 12 0 8 1;
#X connect 13 0 7 0;
#X connect 13 1 12 0;
#X connect 14 0 28 0;
#X connect 15 0 16 0;
#X connect 16 0 18 0;
#X connect 16 0 24 0;
#X connect 18 0 16 1;
#X connect 19 0 16 1;
#X connect 20 0 21 0;
#X connect 20 0 17 0;
#X connect 21 0 20 1;
#X connect 22 0 20 1;
#X connect 23 0 15 0;
#X connect 23 1 19 0;
#X connect 23 2 22 0;
#X connect 24 0 20 0;
#X connect 24 1 17 1;
#X connect 28 0 23 0;
#X connect 29 0 37 0;
#X connect 30 0 31 0;
#X connect 31 0 33 0;
#X connect 31 0 36 0;
#X connect 33 0 31 1;
#X connect 34 0 32 0;
#X connect 34 0 38 0;
#X connect 35 0 30 0;
#X connect 35 1 39 0;
#X connect 35 2 40 0;
#X connect 36 0 34 0;
#X connect 36 1 32 1;
#X connect 37 0 35 0;
#X connect 38 0 34 1;
#X connect 39 0 31 1;
#X connect 40 0 34 1;
#X restore 634 568 pd index_values;
#X obj 634 541 table index_values;
#X obj 634 505 s index;
#X obj 260 139 r index;
#X obj 634 438 tabread index_values;
#X obj 149 438 r pause;
#X obj 537 376 t f f f;
#X msg 499 200 0;
#X msg 472 479 1;
#X obj 472 171 t f b;
#X obj 472 332 t b f;
#X obj 499 221 s pause;
#X obj 472 310 f;
#X obj 134 586 *~;
#X obj 149 553 line~;
#X obj 472 259 t b f;
#X obj 384 119 f;
#X obj 472 288 delay 100;
#X text 557 221 ramp down previous pitch;
#X text 544 287 wait for ramp down and send new freq;
#X text 779 393 1 compute freq \; based on tuning;
#X text 563 413 2 read timbre values;
#X obj 384 49 t b f;
#X obj 384 95 delay;
#X msg 384 71 200;
#X obj 149 458 pack 0 20;
#X obj 209 439 r unpause;
#X obj 209 459 pack 0 100;
#X obj 472 505 s unpause;
#X text 344 449 ramp vol back up slowly \; to avoid attack sound;
#X msg 628 79 83;
#X obj 384 143 s PMToggle;
#X obj 244 483 r PMToggle;
#X obj 779 441 s pitch;
#X obj 134 65 r freq;
#X obj 472 55 r PMFrequency;
#X obj 256 506 r PMVol;
#X connect 1 0 0 0;
#X connect 1 0 0 1;
#X connect 2 0 1 1;
#X connect 3 0 54 0;
#X connect 4 0 7 1;
#X connect 5 0 4 1;
#X connect 6 0 12 0;
#X connect 7 0 6 0;
#X connect 8 0 5 0;
#X connect 9 0 10 0;
#X connect 10 0 8 0;
#X connect 11 0 7 0;
#X connect 12 0 45 0;
#X connect 13 0 4 0;
#X connect 16 0 2 0;
#X connect 17 0 16 0;
#X connect 18 0 11 0;
#X connect 19 0 41 0;
#X connect 20 0 41 0;
#X connect 21 0 17 0;
#X connect 21 1 17 1;
#X connect 22 0 41 0;
#X connect 23 0 41 0;
#X connect 24 0 18 0;
#X connect 24 1 18 1;
#X connect 25 0 26 0;
#X connect 25 1 30 0;
#X connect 26 0 27 0;
#X connect 27 0 28 0;
#X connect 29 0 24 0;
#X connect 30 0 31 0;
#X connect 31 0 28 0;
#X connect 35 0 9 0;
#X connect 36 0 34 0;
#X connect 37 0 57 0;
#X connect 38 0 25 0;
#X connect 38 1 36 0;
#X connect 38 2 65 0;
#X connect 39 0 43 0;
#X connect 40 0 60 0;
#X connect 41 0 47 0;
#X connect 41 1 39 0;
#X connect 42 0 40 0;
#X connect 42 1 38 0;
#X connect 44 0 42 0;
#X connect 45 0 1 0;
#X connect 46 0 45 1;
#X connect 47 0 49 0;
#X connect 47 1 44 1;
#X connect 48 0 63 0;
#X connect 49 0 44 0;
#X connect 54 0 56 0;
#X connect 54 1 48 1;
#X connect 55 0 48 0;
#X connect 56 0 55 0;
#X connect 57 0 46 0;
#X connect 58 0 59 0;
#X connect 59 0 46 0;
#X connect 62 0 41 0;
#X connect 64 0 17 0;
#X connect 66 0 13 0;
#X connect 66 0 18 0;
#X connect 67 0 41 0;
#X connect 68 0 21 0;
#X restore 75 170 pd PM;
#N canvas 313 332 858 588 Record 0;
#X obj 83 386 *~;
#N canvas 120 486 281 172 throw 0;
#X obj 42 104 throw~ dacL;
#X obj 117 104 throw~ dacR;
#X obj 42 57 inlet~;
#X connect 2 0 0 0;
#X connect 2 0 1 0;
#X restore 83 415 pd throw;
#X obj 98 366 line~;
#X msg 98 344 \$1 100;
#X obj 98 277 r recVol;
#X obj 259 349 vu 15 120 empty empty -1 -8 0 10 -66577 -1 1 0;
#X obj 259 296 env~;
#X obj 258 319 - 100;
#X msg 164 315 0.8;
#X obj 83 86 tgl 15 0 empty empty empty 17 7 0 10 -262144 -1 -1 0 1
;
#X obj 104 109 bng 15 250 50 0 empty empty empty 17 7 0 10 -262144
-1 -1;
#X obj 125 173 bng 15 250 50 0 empty empty empty 17 7 0 10 -262144
-1 -1;
#X floatatom 146 199 5 0 0 0 - - -, f 5;
#X text 100 86 on/off;
#X text 123 105 rec;
#X text 145 175 stop_rec;
#X text 183 197 pitch change;
#X obj 125 137 delay 10000;
#X obj 83 221 ola, f 11;
#X msg 180 91 stop;
#X obj 164 292 loadbang;
#X obj 83 38 r recordToggle;
#X obj 191 41 r recStart;
#X obj 272 40 r recStop;
#X obj 340 40 r playbackPitch;
#X connect 0 0 1 0;
#X connect 2 0 0 1;
#X connect 3 0 2 0;
#X connect 4 0 3 0;
#X connect 6 0 7 0;
#X connect 7 0 5 0;
#X connect 8 0 3 0;
#X connect 9 0 18 0;
#X connect 10 0 17 0;
#X connect 10 0 18 1;
#X connect 11 0 18 2;
#X connect 12 0 18 3;
#X connect 17 0 11 0;
#X connect 18 0 0 0;
#X connect 18 0 6 0;
#X connect 19 0 11 0;
#X connect 19 0 17 0;
#X connect 20 0 8 0;
#X connect 21 0 9 0;
#X connect 22 0 10 0;
#X connect 23 0 19 0;
#X connect 24 0 12 0;
#X restore 74 204 pd Record;
#N canvas 891 539 456 269 pitch 0;
#N canvas 181 564 492 381 compute_freq 0;
#X obj 130 33 r a_freq;
#X obj 72 156 - 69;
#X obj 72 178 / 12;
#X msg 72 199 2 \$1;
#X obj 72 222 pow;
#X floatatom 72 273 5 0 0 0 - - -, f 5;
#X obj 72 243 * 440;
#X obj 130 56 t b f;
#X obj 72 130 f;
#X text 68 329 freq = a * 2^((m-69)/12);
#X obj 72 33 inlet;
#X obj 72 70 t b f;
#X obj 71 300 outlet;
#X connect 0 0 7 0;
#X connect 1 0 2 0;
#X connect 2 0 3 0;
#X connect 3 0 4 0;
#X connect 4 0 6 0;
#X connect 5 0 12 0;
#X connect 6 0 5 0;
#X connect 7 0 8 0;
#X connect 7 1 6 1;
#X connect 8 0 1 0;
#X connect 10 0 11 0;
#X connect 11 0 8 0;
#X connect 11 1 8 1;
#X restore 68 164 pd compute_freq;
#X obj 68 188 s freq;
#X obj 207 71 r tuning;
#X obj 207 154 s a_freq;
#X msg 227 121 440;
#X obj 227 98 loadbang;
#X obj 68 44 r pitch;
#X obj 340 74 vsl 15 128 420 460 0 0 empty empty empty 0 -9 0 10 -262144
-1 -1 0 1;
#X obj 340 211 s tuning;
#X msg 340 48 444;
#X obj 126 43 r octaveOffset;
#X obj 68 126 +;
#X obj 126 65 t b f;
#X connect 0 0 1 0;
#X connect 2 0 3 0;
#X connect 4 0 3 0;
#X connect 5 0 4 0;
#X connect 6 0 11 0;
#X connect 7 0 8 0;
#X connect 9 0 7 0;
#X connect 10 0 12 0;
#X connect 11 0 0 0;
#X connect 12 0 11 0;
#X connect 12 1 11 1;
#X restore 182 104 pd pitch;
#X obj 729 134 s pitch;
#X floatatom 419 115 5 0 0 0 - - -, f 5;
#X obj 419 134 s octave;
#X obj 503 134 s oscToggle;
#X msg 503 112 1;
#X msg 607 110 0.8;
#X obj 607 132 s oscVol;
#X msg 729 110 60;
#X connect 1 0 0 0;
#X connect 2 0 0 1;
#X connect 9 0 10 0;
#X connect 12 0 11 0;
#X connect 13 0 14 0;
#X connect 15 0 8 0;
