#N canvas 261 299 506 603 10;
#X obj 55 381 *~;
#X obj 295 310 line~;
#X obj 208 236 loadbang;
#X obj 55 341 *~;
#X msg 295 287 \$1 100;
#X obj 208 258 0;
#X obj 200 304 line~;
#X msg 200 281 \$1 100;
#X obj 200 36 r noiseToggle;
#X obj 295 36 r noiseVol;
#X obj 55 10 noise~;
#X obj 55 87 hip~ 5;
#X obj 55 112 hip~ 5;
#X obj 55 133 hip~ 5;
#X obj 55 178 lop~ 22050;
#X obj 55 203 lop~ 22050;
#X obj 55 224 lop~ 22050;
#X obj 88 39 r noiseHipFreq;
#X obj 88 60 mtof;
#X obj 112 128 r noiseLopFreq;
#X obj 112 152 mtof;
#X obj 55 404 dac~;
#X connect 0 0 21 0;
#X connect 0 0 21 1;
#X connect 1 0 0 1;
#X connect 2 0 5 0;
#X connect 3 0 0 0;
#X connect 4 0 1 0;
#X connect 5 0 7 0;
#X connect 6 0 3 1;
#X connect 7 0 6 0;
#X connect 8 0 7 0;
#X connect 9 0 4 0;
#X connect 10 0 11 0;
#X connect 11 0 12 0;
#X connect 12 0 13 0;
#X connect 13 0 14 0;
#X connect 14 0 15 0;
#X connect 15 0 16 0;
#X connect 16 0 3 0;
#X connect 17 0 18 0;
#X connect 18 0 11 1;
#X connect 18 0 12 1;
#X connect 18 0 13 1;
#X connect 19 0 20 0;
#X connect 20 0 14 1;
#X connect 20 0 15 1;
#X connect 20 0 16 1;
