#N canvas 623 23 572 539 10;
#X obj 83 386 *~;
#X obj 98 366 line~;
#X msg 98 344 \$1 100;
#X obj 98 277 r recVol;
#X obj 23 343 vu 15 120 empty empty -1 -8 0 10 -66577 -1 1 0;
#X obj 22 290 env~;
#X obj 22 313 - 100;
#X obj 83 86 tgl 15 0 empty empty empty 17 7 0 10 -262144 -1 -1 0 1
;
#X obj 104 109 bng 15 250 50 0 empty empty empty 17 7 0 10 -262144
-1 -1;
#X obj 125 173 bng 15 250 50 0 empty empty empty 17 7 0 10 -262144
-1 -1;
#X floatatom 146 199 5 0 0 0 - - -, f 5;
#X text 100 86 on/off;
#X text 123 105 rec;
#X text 145 175 stop_rec;
#X text 183 197 pitch change;
#X obj 125 137 delay 10000;
#X msg 201 94 stop;
#X obj 164 279 loadbang;
#X obj 317 41 r playbackPitch;
#X obj 83 453 dac~;
#X msg 164 302 0;
#X obj 83 38 r recordPlayToggle;
#X obj 201 37 r recStartStop;
#X obj 201 66 sel 0 1;
#X msg 378 149 1;
#X obj 378 179 s recVol;
#X msg 442 149 1;
#X obj 442 179 s recStartStop;
#X msg 474 149 0;
#X msg 379 204 1;
#X msg 410 204 0;
#X obj 379 226 s recordPlayToggle;
#X obj 276 485 s recTime;
#X obj 276 380 f;
#X obj 276 308 t b b;
#X msg 304 353 0;
#X msg 327 427 0;
#X obj 294 288 bng 15 250 50 0 empty empty empty 17 7 0 10 -262144
-1 -1;
#X obj 276 405 moses 1.1;
#N canvas 325 82 883 559 ola 0;
#X obj 53 483 outlet~;
#X obj 644 38 inlet;
#X text 642 22 change_speed/pitch 0=no_change;
#X obj 56 67 tgl 15 0 \$0-on_off empty ON/OFF 17 7 0 10 -262144 -1
-1 0 1;
#X obj 464 41 bng 15 250 50 0 \$0-norm empty NORM 17 7 0 10 -262144
-1 -1;
#X obj 53 135 hsl 400 15 0 1 0 0 \$0-start_slider \$0-start_sliderIN
Start 5 8 0 10 -262144 -1 -1 0 1;
#X obj 53 168 hsl 400 15 0 1 0 0 \$0-loop_slider \$0-loop_sliderIN
Loop_Length 5 8 0 10 -262144 -1 -1 0 1;
#X obj 56 39 inlet;
#X obj 53 155 hsl 400 8 0 1 0 0 empty \$0-end_slider empty 5 8 0 10
-162280 -1 -1 0 1;
#N canvas 681 227 381 480 ola 0;
#X obj 27 168 bng 15 250 50 0 empty empty play 17 7 0 10 -262144 -1
-1;
#X obj 27 128 metro 200;
#X obj 146 265 delay;
#X obj 173 242 * 0.5;
#X obj 27 74 inlet;
#X obj 77 73 inlet;
#X obj 171 74 inlet;
#X obj 215 75 inlet;
#X obj 26 378 +~;
#X obj 26 402 outlet~;
#N canvas 63 202 541 655 cbliplay 0;
#X obj 55 216 pack f f;
#X obj 55 74 t b b;
#X obj 70 257 vline~;
#X obj 183 216 pack f 0;
#X obj 182 150 float;
#X obj 55 189 +;
#X obj 209 100 * 44.1;
#X floatatom 351 100 5 0 0 2 pitch_divisor - -, f 5;
#X obj 351 148 * 10000;
#X obj 69 382 clip~ 2 440998;
#X obj 222 370 cos~;
#X obj 222 393 *~ -0.5;
#X obj 222 414 +~ 0.5;
#X obj 69 548 *~;
#X obj 222 335 vline~;
#X msg 282 310 0 0;
#X obj 222 309 pack 1 f;
#X obj 55 54 inlet;
#X obj 209 56 inlet;
#X obj 351 60 inlet;
#X obj 69 600 outlet~;
#X obj 267 59 inlet;
#X text 197 38 start_pos;
#X text 258 43 loop_length;
#X text 55 35 toggle_off/on;
#X obj 55 160 float;
#X obj 150 354 - 2;
#X obj 82 138 r \$0-samplesize;
#X obj 390 99 r \$0-rectime;
#X obj 69 415 tabread4~ \$0-array;
#X obj 390 121 t b f;
#X connect 0 0 2 0;
#X connect 1 0 16 0;
#X connect 1 0 25 0;
#X connect 1 1 4 0;
#X connect 1 1 15 0;
#X connect 2 0 9 0;
#X connect 3 0 2 0;
#X connect 4 0 3 0;
#X connect 4 0 5 1;
#X connect 5 0 0 0;
#X connect 6 0 4 1;
#X connect 7 0 8 0;
#X connect 8 0 0 1;
#X connect 9 0 29 0;
#X connect 10 0 11 0;
#X connect 11 0 12 0;
#X connect 12 0 13 1;
#X connect 13 0 20 0;
#X connect 14 0 10 0;
#X connect 15 0 14 0;
#X connect 16 0 14 0;
#X connect 17 0 1 0;
#X connect 18 0 6 0;
#X connect 19 0 7 0;
#X connect 21 0 16 1;
#X connect 25 0 5 0;
#X connect 26 0 9 2;
#X connect 27 0 25 1;
#X connect 27 0 26 0;
#X connect 28 0 30 0;
#X connect 29 0 13 0;
#X connect 30 0 8 0;
#X connect 30 1 8 1;
#X restore 27 317 pd cbliplay;
#N canvas 44 22 718 657 cbliplay 0;
#X obj 55 216 pack f f;
#X obj 55 74 t b b;
#X obj 70 257 vline~;
#X obj 172 216 pack f 0;
#X obj 171 150 float;
#X obj 55 189 +;
#X obj 198 100 * 44.1;
#X floatatom 351 100 5 0 0 2 pitch_divisor - -, f 5;
#X obj 351 145 * 10000;
#X obj 69 382 clip~ 2 440998;
#X obj 222 370 cos~;
#X obj 223 394 *~ -0.5;
#X obj 223 415 +~ 0.5;
#X obj 69 548 *~;
#X obj 222 335 vline~;
#X msg 282 310 0 0;
#X obj 222 309 pack 1 f;
#X obj 55 54 inlet;
#X obj 198 56 inlet;
#X obj 351 60 inlet;
#X obj 69 600 outlet~;
#X obj 267 59 inlet;
#X text 186 38 start_pos;
#X text 258 43 loop_length;
#X text 55 35 toggle_off/on;
#X obj 55 160 float;
#X obj 150 354 - 2;
#X obj 82 138 r \$0-samplesize;
#X obj 390 99 r \$0-rectime;
#X obj 69 415 tabread4~ \$0-array;
#X obj 389 121 t b f;
#X connect 0 0 2 0;
#X connect 1 0 16 0;
#X connect 1 0 25 0;
#X connect 1 1 4 0;
#X connect 1 1 15 0;
#X connect 2 0 9 0;
#X connect 3 0 2 0;
#X connect 4 0 3 0;
#X connect 4 0 5 1;
#X connect 5 0 0 0;
#X connect 6 0 4 1;
#X connect 7 0 8 0;
#X connect 8 0 0 1;
#X connect 9 0 29 0;
#X connect 10 0 11 0;
#X connect 11 0 12 0;
#X connect 12 0 13 1;
#X connect 13 0 20 0;
#X connect 14 0 10 0;
#X connect 15 0 14 0;
#X connect 16 0 14 0;
#X connect 17 0 1 0;
#X connect 18 0 6 0;
#X connect 19 0 7 0;
#X connect 21 0 16 1;
#X connect 25 0 5 0;
#X connect 26 0 9 2;
#X connect 27 0 25 1;
#X connect 27 0 26 0;
#X connect 28 0 30 0;
#X connect 29 0 13 0;
#X connect 30 0 8 0;
#X connect 30 1 8 1;
#X restore 146 316 pd cbliplay;
#X connect 0 0 2 0;
#X connect 0 0 10 0;
#X connect 1 0 0 0;
#X connect 2 0 11 0;
#X connect 3 0 2 1;
#X connect 4 0 1 0;
#X connect 5 0 1 1;
#X connect 5 0 3 0;
#X connect 5 0 10 2;
#X connect 5 0 11 2;
#X connect 6 0 10 1;
#X connect 6 0 11 1;
#X connect 7 0 10 3;
#X connect 7 0 11 3;
#X connect 8 0 9 0;
#X connect 10 0 8 0;
#X connect 11 0 8 1;
#X restore 53 350 pd ola;
#N canvas 351 40 180 296 pitch_shift 0;
#X obj 36 36 inlet;
#X obj 38 235 outlet;
#X obj 39 147 mtof;
#X floatatom 39 127 5 0 0 0 - - -, f 5;
#X floatatom 39 170 5 0 0 0 - - -, f 5;
#X obj 39 81 loadbang;
#X obj 97 138 mtof;
#X floatatom 97 116 5 0 0 2 pitch - -, f 5;
#X floatatom 94 161 5 0 0 0 - - -, f 5;
#X obj 38 201 /;
#X obj 92 179 t b f;
#X msg 39 104 60;
#X obj 97 81 + 60;
#X connect 0 0 12 0;
#X connect 2 0 4 0;
#X connect 3 0 2 0;
#X connect 4 0 9 0;
#X connect 5 0 11 0;
#X connect 6 0 8 0;
#X connect 7 0 6 0;
#X connect 8 0 10 0;
#X connect 9 0 1 0;
#X connect 10 0 9 0;
#X connect 10 1 9 1;
#X connect 11 0 3 0;
#X connect 11 0 7 0;
#X connect 12 0 7 0;
#X restore 644 61 pd pitch_shift;
#X text 328 20 loop;
#X text 142 19 start;
#X text 46 22 ON/OFF;
#X obj 644 84 s \$0-pitch_shift;
#X obj 86 328 r \$0-pitch_shift;
#X obj 53 260 r \$0-on_off;
#X obj 75 305 r \$0-start_pos;
#N canvas 88 574 500 303 startPos 0;
#X floatatom 85 219 10 0 0 2 start - -, f 10;
#X obj 85 139 * 10000;
#X obj 85 162 pack f 60;
#X obj 85 185 line;
#X obj 85 66 r \$0-rectime;
#X obj 85 98 t b f;
#X obj 166 107 print length;
#X obj 165 175 print;
#X msg 165 153 \$1 sec;
#X obj 166 128 / 1000;
#X obj 85 242 s \$0-start_pos;
#X text 141 12 receive start time as ratio of whole recording to be
\; multiplied for actual start position;
#X obj 28 19 r \$0-start_slider;
#X connect 0 0 10 0;
#X connect 1 0 2 0;
#X connect 2 0 3 0;
#X connect 3 0 0 0;
#X connect 4 0 5 0;
#X connect 4 0 6 0;
#X connect 4 0 9 0;
#X connect 5 0 1 0;
#X connect 5 1 1 1;
#X connect 8 0 7 0;
#X connect 9 0 8 0;
#X connect 12 0 1 0;
#X restore 229 260 pd startPos;
#X obj 64 281 r \$0-loop_length;
#N canvas 104 280 302 323 loopLength 0;
#X obj 58 121 * 1;
#X obj 73 92 t b f;
#X obj 58 187 s \$0-loop_length;
#X obj 73 71 r \$0-rectime;
#X obj 58 43 r \$0-loop_slider;
#X connect 1 0 0 0;
#X connect 1 1 0 1;
#X connect 3 0 1 0;
#X connect 3 0 2 0;
#X connect 4 0 0 0;
#X restore 229 285 pd loopLength;
#N canvas 138 285 244 249 endSlider 0;
#X obj 24 163 +;
#X obj 24 77 t b f;
#X obj 78 114 r \$0-start_slider;
#X obj 24 191 s \$0-end_slider;
#X obj 24 44 r \$0-loop_slider;
#X connect 0 0 3 0;
#X connect 1 0 0 0;
#X connect 1 1 0 1;
#X connect 2 0 0 0;
#X connect 4 0 1 0;
#X restore 229 309 pd endSlider;
#X obj 144 41 s \$0-start_sliderIN;
#X obj 331 41 s \$0-loop_slider;
#X msg 612 40 0;
#N canvas 64 235 829 490 table 0;
#X obj 87 112 loadbang;
#X obj 87 135 f \$0;
#X floatatom 87 158 5 0 0 0 - - -, f 5;
#X obj 72 180 f;
#X msg 72 201 \; \$1-array normalize \;;
#X obj 245 199 tabwrite~ \$0-array;
#X obj 72 77 r \$0-norm;
#X obj 245 65 adc~ 1;
#X msg 362 67 stop;
#X obj 401 170 timer;
#X obj 426 149 bng 15 250 50 0 empty empty empty 17 7 0 10 -262144
-1 -1;
#X obj 299 88 t b b;
#X obj 402 259 s \$0-rectime;
#X obj 402 203 moses 10000;
#X msg 465 226 9998;
#X obj 246 289 r \$0-rectime;
#X obj 245 340 s \$0-samplesize;
#X floatatom 403 302 10 0 0 0 - #0-rectime -, f 10;
#X floatatom 404 323 15 0 0 0 - #0-samplesize -, f 15;
#X obj 245 313 * 44.1;
#X obj 245 226 table \$0-array 441000;
#X obj 299 20 inlet;
#X obj 362 20 inlet;
#X obj 153 111 bng 15 250 50 0 empty empty empty 17 7 0 10 -262144
-1 -1;
#X obj 95 306 print \$0-array;
#X connect 0 0 1 0;
#X connect 1 0 2 0;
#X connect 2 0 3 1;
#X connect 3 0 4 0;
#X connect 6 0 3 0;
#X connect 7 0 5 0;
#X connect 8 0 5 0;
#X connect 8 0 10 0;
#X connect 8 0 24 0;
#X connect 9 0 13 0;
#X connect 10 0 9 1;
#X connect 11 0 5 0;
#X connect 11 1 9 0;
#X connect 13 0 12 0;
#X connect 13 1 14 0;
#X connect 14 0 12 0;
#X connect 15 0 19 0;
#X connect 19 0 16 0;
#X connect 21 0 11 0;
#X connect 22 0 8 0;
#X connect 23 0 1 0;
#X restore 524 144 pd table;
#X obj 524 47 inlet;
#X obj 563 47 inlet;
#X connect 1 0 10 0;
#X connect 7 0 3 0;
#X connect 9 0 0 0;
#X connect 10 0 14 0;
#X connect 15 0 9 3;
#X connect 16 0 9 0;
#X connect 17 0 9 2;
#X connect 19 0 9 1;
#X connect 24 0 10 0;
#X connect 26 0 25 0;
#X connect 27 0 25 1;
#X restore 83 227 pd ola, f 11;
#X obj 276 332 metro 100;
#X obj 305 380 + 0.01;
#X connect 0 0 19 0;
#X connect 0 0 19 1;
#X connect 1 0 0 1;
#X connect 2 0 1 0;
#X connect 3 0 2 0;
#X connect 5 0 6 0;
#X connect 6 0 4 0;
#X connect 7 0 39 0;
#X connect 8 0 15 0;
#X connect 8 0 39 1;
#X connect 9 0 39 2;
#X connect 10 0 39 3;
#X connect 15 0 9 0;
#X connect 16 0 9 0;
#X connect 16 0 15 0;
#X connect 17 0 20 0;
#X connect 18 0 10 0;
#X connect 20 0 2 0;
#X connect 21 0 7 0;
#X connect 22 0 23 0;
#X connect 23 0 16 0;
#X connect 23 1 8 0;
#X connect 23 1 34 0;
#X connect 24 0 25 0;
#X connect 26 0 27 0;
#X connect 28 0 27 0;
#X connect 29 0 31 0;
#X connect 30 0 31 0;
#X connect 33 0 38 0;
#X connect 33 0 41 0;
#X connect 34 0 40 0;
#X connect 34 1 35 0;
#X connect 35 0 33 1;
#X connect 36 0 40 0;
#X connect 37 0 34 0;
#X connect 38 0 32 0;
#X connect 38 1 36 0;
#X connect 39 0 0 0;
#X connect 40 0 33 0;
#X connect 41 0 33 1;
