#N canvas 605 23 572 539 10;
#X obj 83 386 *~;
#X obj 98 366 line~;
#X msg 98 344 \$1 100;
#X obj 98 277 r recVol;
#X obj 259 349 vu 15 120 empty empty -1 -8 0 10 -66577 -1 1 0;
#X obj 258 296 env~;
#X obj 258 319 - 100;
#X obj 83 86 tgl 15 0 empty empty empty 17 7 0 10 -262144 -1 -1 0 1
;
#X obj 104 109 bng 15 250 50 0 empty empty empty 17 7 0 10 -262144
-1 -1;
#X obj 125 173 bng 15 250 50 0 empty empty empty 17 7 0 10 -262144
-1 -1;
#X floatatom 146 199 5 0 0 0 - - -, f 5;
#X text 100 86 on/off;
#X text 123 105 rec;
#X text 145 175 stop_rec;
#X text 183 197 pitch change;
#X obj 125 137 delay 10000;
#X obj 83 221 ola, f 11;
#X msg 201 94 stop;
#X obj 164 279 loadbang;
#X obj 317 41 r playbackPitch;
#X obj 83 453 dac~;
#X msg 164 302 0;
#X obj 83 38 r recordPlayToggle;
#X obj 201 37 r recStartStop;
#X obj 201 66 sel 0 1;
#X msg 378 149 1;
#X obj 378 179 s recVol;
#X msg 442 149 1;
#X obj 442 179 s recStartStop;
#X msg 474 149 0;
#X msg 379 204 1;
#X msg 410 204 0;
#X obj 379 226 s recordPlayToggle;
#X connect 0 0 20 0;
#X connect 0 0 20 1;
#X connect 0 0 5 0;
#X connect 1 0 0 1;
#X connect 2 0 1 0;
#X connect 3 0 2 0;
#X connect 5 0 6 0;
#X connect 6 0 4 0;
#X connect 7 0 16 0;
#X connect 8 0 15 0;
#X connect 8 0 16 1;
#X connect 9 0 16 2;
#X connect 10 0 16 3;
#X connect 15 0 9 0;
#X connect 16 0 0 0;
#X connect 17 0 9 0;
#X connect 17 0 15 0;
#X connect 18 0 21 0;
#X connect 19 0 10 0;
#X connect 21 0 2 0;
#X connect 22 0 7 0;
#X connect 23 0 24 0;
#X connect 24 0 17 0;
#X connect 24 1 8 0;
#X connect 25 0 26 0;
#X connect 27 0 28 0;
#X connect 29 0 28 0;
#X connect 30 0 32 0;
#X connect 31 0 32 0;
